<svg width="280" height="38" viewBox="0 0 280 38" fill="none" xmlns="http://www.w3.org/2000/svg">
<path d="M4.04249 10.8206L3.11545 15.3798L0 31.0634H5.63821L8.67768 15.4102H16.3523L13.3129 31.0634H18.9511L22.9936 10.8206H4.04249Z" fill="#2B3347"/>
<path d="M43.3124 12.5227C41.8991 11.3677 39.8626 10.8206 37.2335 10.8206H28.6318L24.5893 31.0634H30.3339L31.3673 25.7595H35.4402C37.4462 25.7595 39.1787 25.4252 40.7137 24.7261C42.2486 24.027 43.3884 23.0544 44.1939 21.7626C45.0145 20.5013 45.4248 19.0119 45.4248 17.3098C45.4704 15.243 44.7562 13.6473 43.3124 12.5227ZM38.6468 20.3949C37.9782 20.9876 36.9751 21.2915 35.7137 21.2915H32.2943L33.4797 15.395H36.4888C37.4918 15.395 38.2669 15.6229 38.8292 16.018C39.3915 16.4284 39.6499 17.0515 39.6499 17.8721C39.6347 18.9511 39.3155 19.8022 38.6468 20.3949Z" fill="#2B3347"/>
<path d="M69.7556 14.7112C68.935 13.3738 67.7496 12.2948 66.2299 11.5653C64.7101 10.8207 62.932 10.4559 60.8956 10.4559C58.4488 10.4559 56.2604 10.9726 54.3303 12.0061C52.4003 13.0395 50.9109 14.4832 49.8471 16.3525C48.7681 18.2066 48.2514 20.2886 48.2514 22.6138C48.2514 24.3615 48.6617 25.8812 49.4824 27.249C50.303 28.5864 51.4884 29.6654 53.0082 30.3949C54.5279 31.1395 56.306 31.5499 58.3424 31.5499C60.7892 31.5499 62.9776 31.0331 64.9077 29.9997C66.8378 28.9663 68.3271 27.5225 69.3909 25.6533C70.4699 23.7992 70.9866 21.7172 70.9866 19.392C70.9714 17.6139 70.5763 16.0486 69.7556 14.7112ZM64.4214 23.2521C63.9047 24.3311 63.16 25.1822 62.2026 25.8052C61.2451 26.4283 60.1205 26.7627 58.8288 26.7627C57.309 26.7627 56.154 26.3524 55.303 25.5317C54.4519 24.7111 54.0416 23.6016 54.0416 22.2339C54.0416 20.9421 54.2999 19.7567 54.8167 18.6777C55.3334 17.5987 56.078 16.7476 57.0355 16.1245C57.9929 15.5015 59.1175 15.1671 60.4093 15.1671C61.929 15.1671 63.084 15.5774 63.9351 16.3981C64.7861 17.2188 65.1964 18.3282 65.1964 19.6959C65.1964 20.9877 64.9381 22.1731 64.4214 23.2521Z" fill="#2B3347"/>
<path d="M90.9714 20.6078C92.1264 20.1215 93.0079 19.4528 93.6462 18.6018C94.2693 17.7507 94.6036 16.7477 94.6036 15.5623C94.6036 14.0426 94.0109 12.8572 92.7799 12.0365C91.5945 11.2159 89.8468 10.8055 87.552 10.8055H77.309L73.2817 31.0788H84.4062C87.1569 31.0788 89.4061 30.5165 91.1234 29.4527C92.8255 28.3737 93.6766 26.7779 93.6766 24.6655C93.6766 23.7385 93.4486 22.9178 92.9775 22.2491C92.4912 21.5349 91.8225 20.9878 90.9714 20.6078ZM87.0809 26.3676C86.4882 26.778 85.7132 26.9603 84.7101 26.9603H79.771L80.5917 22.8874H85.5916C86.3363 22.8874 86.8834 23.0394 87.2937 23.2977C87.704 23.6017 87.9168 23.9968 87.9168 24.5591C87.932 25.395 87.6736 25.9877 87.0809 26.3676ZM87.7344 18.237C87.2177 18.6474 86.4426 18.8297 85.4396 18.8297H81.3971L82.1722 14.9696H86.1843C87.78 14.9696 88.5551 15.4863 88.5551 16.5197C88.5551 17.31 88.2967 17.8723 87.7344 18.237Z" fill="#2B3347"/>
<path d="M113.661 10.8206H108.023L95.044 31.0634H101.199L103.494 27.2033H111.943L112.719 31.0634H118.509L113.661 10.8206ZM105.956 22.9176L109.846 16.3524L111.214 22.9176H105.956Z" fill="#2B3347"/>
<path d="M140.287 10.8206L129.572 22.6897L132.019 10.8206H126.381L122.339 31.0634H127.794L138.508 19.2399L136.062 31.0634H141.7L145.742 10.8206H140.287Z" fill="#2B3347"/>
<path d="M170.514 10.8206H154.162L152.718 16.8995C152.019 19.9086 151.199 22.2338 150.302 23.9814C149.405 25.6836 148.372 26.5802 147.156 26.5802H146.67L145.743 31.1394H169.253L170.18 26.5802H167.399L170.514 10.8206ZM161.685 26.5498H154.238C154.907 25.7747 155.499 24.6653 155.986 23.252C156.472 21.8386 156.989 20.0301 157.536 17.7961L158.129 15.3494H163.949L161.685 26.5498Z" fill="#2B3347"/>
<path d="M192.353 15.2733L193.249 10.79H177.383L173.341 31.0329H189.587L190.514 26.6561H179.906L180.605 22.9783H189.647L190.499 18.7079H181.486L182.155 15.2581H192.353V15.2733Z" fill="#2B3347"/>
<path d="M212.824 12.5227C211.41 11.3677 209.374 10.8206 206.745 10.8206H198.173L194.131 31.0634H199.875L200.909 25.7595H204.982C206.988 25.7595 208.72 25.4252 210.255 24.7261C211.775 24.027 212.93 23.0544 213.735 21.7626C214.556 20.5013 214.966 19.0119 214.966 17.3098C214.982 15.243 214.282 13.6473 212.824 12.5227ZM208.158 20.3949C207.489 20.9876 206.486 21.2915 205.225 21.2915H201.805L202.991 15.395H206C207.003 15.395 207.778 15.6229 208.34 16.018C208.903 16.4284 209.161 17.0515 209.161 17.8721C209.161 18.9511 208.827 19.8022 208.158 20.3949Z" fill="#2B3347"/>
<path d="M142.11 5.4104H132.095L131.578 8.44987H141.548L142.11 5.4104Z" fill="#0098FF"/>
<path d="M251.303 1.09429V5.10639C251.303 5.42554 251.06 5.69908 250.756 5.74467C244.707 6.7325 239.267 9.57441 235.072 13.6777C234.86 13.8905 234.54 13.8905 234.328 13.6777L231.364 10.7142C231.151 10.5014 231.151 10.1519 231.364 9.93915C236.501 4.95442 243.142 1.53502 250.558 0.440808C250.938 0.380019 251.303 0.699161 251.303 1.09429Z" fill="#2B3347"/>
<path d="M259.297 21.1396L255.406 25.0301C255.3 25.1365 255.163 25.1973 255.026 25.1973C254.601 25.2277 254.206 25.2733 253.826 25.3493C253.75 25.3493 253.72 25.3797 253.644 25.3797C253.4 25.4557 253.112 25.486 252.868 25.5924C251.501 26.018 250.224 26.717 249.16 27.6745C248.948 27.8568 248.628 27.8568 248.416 27.6441L241.744 20.9724L238.249 17.4771C238.036 17.2643 238.036 16.9148 238.249 16.702C239.419 15.6078 240.65 14.62 241.987 13.7385C242.018 13.7081 242.063 13.6625 242.124 13.6625C244.662 12.0364 247.519 10.8662 250.574 10.2583C250.938 10.1823 251.273 10.4711 251.273 10.8358V15.319C251.273 15.5926 251.09 15.8205 250.817 15.8965C249.403 16.2461 248.051 16.7476 246.774 17.4011C246.455 17.5834 246.379 17.9938 246.638 18.2521L249.176 20.7901C249.312 20.9268 249.571 21.0028 249.768 20.8965C250.756 20.4709 251.774 20.1974 252.838 19.9846C253.72 19.8022 254.677 19.7415 255.589 19.7415C256.501 19.7415 257.382 19.8174 258.233 19.9846C258.491 20.0302 258.735 20.0758 258.993 20.1366C259.464 20.243 259.616 20.8205 259.297 21.1396Z" fill="#2B3347"/>
<path d="M279.844 10.5014L262.808 27.5376C262.595 27.7503 262.276 27.7503 262.063 27.568C260.999 26.6105 259.708 25.9115 258.294 25.5163C257.899 25.4099 257.762 24.9236 258.051 24.6349L264.54 18.1456C264.784 17.9025 264.723 17.4465 264.404 17.2946C262.534 16.3371 260.452 15.7141 258.31 15.4253C257.428 15.3189 256.547 15.2429 255.665 15.2429C254.921 15.2429 254.221 15.2733 253.477 15.3493C253.158 15.3797 252.884 15.1366 252.884 14.8174V0.607894C252.884 0.319144 253.097 0.0759867 253.37 0.0759867C254.115 0.045592 254.89 0 255.635 0C256.379 0 257.079 0.0303947 257.793 0.0759867C258.082 0.0759867 258.279 0.319144 258.279 0.607894V9.39196C258.279 9.6807 258.492 9.87827 258.735 9.92386C262.337 10.3798 265.711 11.5804 268.674 13.3737C268.887 13.5104 269.16 13.48 269.343 13.2977L275.726 6.91479C275.908 6.73242 276.212 6.70203 276.425 6.8388C277.625 7.72025 278.75 8.67768 279.814 9.6959C280.057 9.93906 280.057 10.2886 279.844 10.5014Z" fill="#0098FF"/>
<path d="M255.543 37.0207C257.155 37.0207 258.461 35.7143 258.461 34.1028C258.461 32.4913 257.155 31.1849 255.543 31.1849C253.932 31.1849 252.625 32.4913 252.625 34.1028C252.625 35.7143 253.932 37.0207 255.543 37.0207Z" fill="#0098FF"/>
</svg>
