<svg width="24" height="24" viewBox="0 0 24 24" fill="none" xmlns="http://www.w3.org/2000/svg">
<path d="M2.00891 3.9972C2.94593 13.4483 10.4622 20.9645 19.9132 21.9015C21.0124 22.0105 21.9104 21.1046 21.9104 20V16.4415C21.9104 15.5807 21.3596 14.8164 20.5429 14.5442L17.0831 13.3909C16.3644 13.1513 15.5721 13.3384 15.0364 13.874L14.4826 14.4278C14.1489 14.7615 13.626 14.8183 13.2365 14.5519C11.4417 13.3242 10.435 12.3196 9.33784 10.6677C9.08104 10.281 9.14243 9.76801 9.47063 9.4398L10.0364 8.87403C10.5721 8.33837 10.7591 7.54603 10.5196 6.82736L9.36628 3.36754C9.09405 2.55086 8.32978 2 7.46892 2H3.91043C2.80586 2 1.89993 2.89802 2.00891 3.9972Z" stroke="white" stroke-width="1.5" stroke-linecap="round"/>
</svg>
