<svg width="24" height="24" viewBox="0 0 24 24" fill="none" xmlns="http://www.w3.org/2000/svg">
<g clip-path="url(#clip0_120_120)">
<path fill-rule="evenodd" clip-rule="evenodd" d="M10.4764 12.0004L9.45139 13.0494L5.89844 16.6814L9.21049 20.0704L17.1004 12.0004L9.21049 3.93044L5.89944 7.31744L9.45239 10.9514L10.4774 12.0014L10.4764 12.0004ZM8.37944 12.0004L4.14344 16.3324C4.05213 16.4258 4.001 16.5513 4.001 16.6819C4.001 16.8125 4.05213 16.938 4.14344 17.0314L8.85444 21.8504C8.901 21.898 8.95662 21.9359 9.01799 21.9617C9.07939 21.9875 9.14529 22.0009 9.21189 22.0009C9.27859 22.0009 9.34449 21.9875 9.40589 21.9617C9.46729 21.9359 9.52289 21.898 9.56939 21.8504L18.8584 12.3504C18.9501 12.2569 19.0014 12.1313 19.0014 12.0004C19.0014 11.8695 18.9501 11.7439 18.8584 11.6504L9.56939 2.15044C9.52289 2.10282 9.46729 2.06498 9.40589 2.03914C9.34449 2.01331 9.27859 2 9.21189 2C9.14529 2 9.07939 2.01331 9.01799 2.03914C8.95662 2.06498 8.901 2.10282 8.85444 2.15044L4.14244 6.96844C4.05113 7.06186 4 7.18731 4 7.31794C4 7.44857 4.05113 7.57402 4.14244 7.66744L8.37744 12.0004H8.37944Z" fill="#0098FF"/>
</g>
<defs>
<clipPath id="clip0_120_120">
<rect width="24" height="24" fill="white"/>
</clipPath>
</defs>
</svg>
